<svg width="318" height="62" viewBox="0 0 318 62" fill="none" xmlns="http://www.w3.org/2000/svg">
<g filter="url(#filter0_d_615_876)">
<path d="M4 27C4 12.0883 16.0883 0 31 0H287C301.912 0 314 12.0883 314 27V27C314 41.9117 301.912 54 287 54H31C16.0883 54 4 41.9117 4 27V27Z" fill="url(#paint0_linear_615_876)"/>
</g>
<path d="M118.007 19.771V35.513H120.166V19.771H118.007ZM111.768 25.806V27.591H115.134V25.806H111.768ZM114.692 20.111V34.816H116.8V20.111H114.692ZM111.258 21.624V22.083C111.258 25.891 109.983 28.509 106.396 30.668L107.671 32.249C112.091 29.682 113.434 26.112 113.434 21.624H111.258ZM107.28 21.624V23.426H111.972V21.624H107.28ZM127.236 20.672V21.811C127.236 24.072 125.281 26.571 121.728 27.183L122.697 29.053C126.777 28.254 129.208 25.228 129.208 21.811V20.672H127.236ZM127.695 20.672V21.811C127.695 25.279 130.109 28.254 134.189 29.053L135.158 27.183C131.588 26.571 129.65 24.123 129.65 21.811V20.672H127.695ZM121.405 31.756V33.592H135.651V31.756H121.405ZM137.86 27.88V29.648H148.927V27.88H137.86ZM136.194 31.875V33.711H150.44V31.875H136.194ZM137.86 20.91V28.373H140.155V22.729H148.791V20.91H137.86ZM139.458 24.378V26.129H148.434V24.378H139.458ZM150.983 31.943V33.779H165.229V31.943H150.983ZM156.95 28.968V32.691H159.211V28.968H156.95ZM152.581 20.791V22.576H161.387V24.259H152.615V28.679H154.859V26.027H163.631V20.791H152.581ZM152.615 27.778V29.597H163.988V27.778H152.615ZM172.598 20.978V23.273C172.598 26.333 171.306 29.359 168.569 30.549L169.912 32.419C173.04 30.974 174.434 27.319 174.434 23.273V20.978H172.598ZM173.04 20.978V23.273C173.04 27.149 174.434 30.651 177.477 32.045L178.803 30.226C176.117 29.07 174.876 26.18 174.876 23.273V20.978H173.04ZM179.551 19.754V35.547H181.829V19.754H179.551ZM187.046 21.386V22.372C187.046 24.344 185.941 26.384 183.306 27.234L184.479 28.985C187.488 28.016 188.899 25.347 188.899 22.372V21.386H187.046ZM187.505 21.386V22.372C187.505 25.194 188.865 27.761 191.806 28.713L192.962 26.962C190.412 26.146 189.341 24.225 189.341 22.372V21.386H187.505ZM183.918 20.689V22.491H192.418V20.689H183.918ZM193.676 19.771V29.257H195.937V19.771H193.676ZM195.308 23.579V25.432H198.028V23.579H195.308ZM185.431 29.937V31.756H193.676V35.513H195.937V29.937H185.431ZM208.431 19.771V35.513H210.675V19.771H208.431ZM210.165 25.908V27.795H212.953V25.908H210.165ZM198.265 22.1V23.902H207.428V22.1H198.265ZM202.872 24.786C200.577 24.786 198.877 26.35 198.877 28.543C198.877 30.736 200.577 32.3 202.872 32.3C205.167 32.3 206.867 30.736 206.867 28.543C206.867 26.35 205.167 24.786 202.872 24.786ZM202.872 26.622C203.943 26.622 204.708 27.336 204.708 28.543C204.708 29.75 203.943 30.464 202.872 30.464C201.801 30.464 201.036 29.75 201.036 28.543C201.036 27.336 201.801 26.622 202.872 26.622ZM201.733 20.026V22.78H203.994V20.026H201.733ZM223.968 19.771V35.513H226.246V19.771H223.968ZM219.327 21.403V21.811C219.327 26.027 217.695 28.883 213.173 31.059L214.346 32.861C219.939 30.158 221.571 26.214 221.571 21.403H219.327ZM214.006 21.403V23.188H220.398V21.403H214.006Z" fill="white"/>
<defs>
<filter id="filter0_d_615_876" x="0" y="0" width="318" height="62" filterUnits="userSpaceOnUse" color-interpolation-filters="sRGB">
<feFlood flood-opacity="0" result="BackgroundImageFix"/>
<feColorMatrix in="SourceAlpha" type="matrix" values="0 0 0 0 0 0 0 0 0 0 0 0 0 0 0 0 0 0 127 0" result="hardAlpha"/>
<feOffset dy="4"/>
<feGaussianBlur stdDeviation="2"/>
<feComposite in2="hardAlpha" operator="out"/>
<feColorMatrix type="matrix" values="0 0 0 0 0 0 0 0 0 0 0 0 0 0 0 0 0 0 0.25 0"/>
<feBlend mode="normal" in2="BackgroundImageFix" result="effect1_dropShadow_615_876"/>
<feBlend mode="normal" in="SourceGraphic" in2="effect1_dropShadow_615_876" result="shape"/>
</filter>
<linearGradient id="paint0_linear_615_876" x1="135" y1="-34.5" x2="196" y2="72.5" gradientUnits="userSpaceOnUse">
<stop stop-color="#26E5FF"/>
<stop offset="1" stop-color="#C4A0FF"/>
</linearGradient>
</defs>
</svg>
