<svg width="318" height="62" viewBox="0 0 318 62" fill="none" xmlns="http://www.w3.org/2000/svg">
<g filter="url(#filter0_d_615_876)">
<path d="M4 27C4 12.0883 16.0883 0 31 0H287C301.912 0 314 12.0883 314 27C314 41.9117 301.912 54 287 54H31C16.0883 54 4 41.9117 4 27Z" fill="url(#paint0_linear_615_876)"/>
</g>
<path d="M118.031 19.771V35.513H120.19V19.771H118.031ZM111.792 25.806V27.591H115.158V25.806H111.792ZM114.716 20.111V34.816H116.824V20.111H114.716ZM111.282 21.624V22.083C111.282 25.891 110.007 28.509 106.42 30.668L107.695 32.249C112.115 29.682 113.458 26.112 113.458 21.624H111.282ZM107.304 21.624V23.426H111.996V21.624H107.304ZM127.261 20.672V21.811C127.261 24.072 125.306 26.571 121.753 27.183L122.722 29.053C126.802 28.254 129.233 25.228 129.233 21.811V20.672H127.261ZM127.72 20.672V21.811C127.72 25.279 130.134 28.254 134.214 29.053L135.183 27.183C131.613 26.571 129.675 24.123 129.675 21.811V20.672H127.72ZM121.43 31.756V33.592H135.676V31.756H121.43ZM137.885 27.88V29.648H148.952V27.88H137.885ZM136.219 31.875V33.711H150.465V31.875H136.219ZM137.885 20.91V28.373H140.18V22.729H148.816V20.91H137.885ZM139.483 24.378V26.129H148.459V24.378H139.483ZM151.16 32.266V33.439H165.083V32.266H151.16ZM157.382 28.968V32.759H158.793V28.968H157.382ZM152.843 21.097V22.236H161.972V24.616H152.894V28.832H154.288V25.755H163.366V21.097H152.843ZM152.894 28.237V29.393H163.723V28.237H152.894ZM172.947 21.284V24.038C172.947 26.945 171.094 29.886 168.816 30.974L169.683 32.13C172.199 30.855 174.103 27.574 174.103 24.038V21.284H172.947ZM173.185 21.284V24.038C173.185 27.455 175.106 30.617 177.605 31.841L178.455 30.719C176.177 29.665 174.341 26.843 174.341 24.038V21.284H173.185ZM180.053 19.941V35.343H181.464V19.941H180.053ZM187.464 21.539V22.78C187.464 24.973 185.934 26.945 183.605 27.761L184.353 28.866C186.92 27.948 188.62 25.602 188.62 22.78V21.539H187.464ZM187.719 21.539V22.763C187.719 25.415 189.351 27.676 191.884 28.56L192.615 27.455C190.354 26.69 188.875 24.803 188.875 22.763V21.539H187.719ZM184.047 21.029V22.185H192.258V21.029H184.047ZM194.196 19.958V29.206H195.607V19.958H194.196ZM195.216 24.004V25.177H197.885V24.004H195.216ZM185.628 30.022V31.195H194.196V35.326H195.607V30.022H185.628ZM208.882 19.958V35.326H210.293V19.958H208.882ZM209.953 26.265V27.455H212.809V26.265H209.953ZM198.393 22.406V23.562H207.454V22.406H198.393ZM202.983 24.837C200.824 24.837 199.243 26.299 199.243 28.373C199.243 30.447 200.824 31.909 202.983 31.909C205.159 31.909 206.723 30.447 206.723 28.373C206.723 26.299 205.159 24.837 202.983 24.837ZM202.983 26.01C204.377 26.01 205.38 26.979 205.38 28.373C205.38 29.75 204.377 30.736 202.983 30.736C201.589 30.736 200.586 29.75 200.586 28.373C200.586 26.979 201.589 26.01 202.983 26.01ZM202.252 20.145V22.933H203.663V20.145H202.252ZM224.453 19.958V35.326H225.864V19.958H224.453ZM219.948 21.607V21.845C219.948 25.925 217.891 29.189 213.454 31.331L214.202 32.47C219.336 29.954 221.342 26.061 221.342 21.607H219.948ZM214.151 21.607V22.763H220.56V21.607H214.151Z" fill="white"/>
<defs>
<filter id="filter0_d_615_876" x="0" y="0" width="318" height="62" filterUnits="userSpaceOnUse" color-interpolation-filters="sRGB">
<feFlood flood-opacity="0" result="BackgroundImageFix"/>
<feColorMatrix in="SourceAlpha" type="matrix" values="0 0 0 0 0 0 0 0 0 0 0 0 0 0 0 0 0 0 127 0" result="hardAlpha"/>
<feOffset dy="4"/>
<feGaussianBlur stdDeviation="2"/>
<feComposite in2="hardAlpha" operator="out"/>
<feColorMatrix type="matrix" values="0 0 0 0 0 0 0 0 0 0 0 0 0 0 0 0 0 0 0.25 0"/>
<feBlend mode="normal" in2="BackgroundImageFix" result="effect1_dropShadow_615_876"/>
<feBlend mode="normal" in="SourceGraphic" in2="effect1_dropShadow_615_876" result="shape"/>
</filter>
<linearGradient id="paint0_linear_615_876" x1="135" y1="-34.5" x2="196" y2="72.5" gradientUnits="userSpaceOnUse">
<stop stop-color="#7EE1F6"/>
<stop offset="1" stop-color="#B5A3D3"/>
</linearGradient>
</defs>
</svg>
