<svg width="73" height="76" viewBox="0 0 73 76" fill="none" xmlns="http://www.w3.org/2000/svg">
<path d="M30.1028 4.03303C32.5165 2.5676 33.7234 1.83489 35.0134 1.54878C36.1543 1.29572 37.3369 1.29572 38.4778 1.54878C39.7679 1.83489 40.9747 2.5676 43.3884 4.03303L61.8833 15.2618C64.1292 16.6253 65.2522 17.3071 66.0676 18.2413C66.7892 19.068 67.333 20.0343 67.6651 21.0802C68.0405 22.262 68.0405 23.5757 68.0405 26.2031V49.7969C68.0405 52.4243 68.0405 53.738 67.6651 54.9198C67.333 55.9657 66.7892 56.932 66.0676 57.7587C65.2522 58.6929 64.1292 59.3747 61.8833 60.7382L43.3884 71.967C40.9747 73.4324 39.7679 74.1651 38.4778 74.4512C37.3369 74.7043 36.1543 74.7043 35.0134 74.4512C33.7234 74.1651 32.5165 73.4324 30.1028 71.967L11.6079 60.7382C9.362 59.3746 8.23904 58.6929 7.42366 57.7587C6.70206 56.932 6.15827 55.9657 5.82608 54.9198C5.45071 53.738 5.45071 52.4243 5.45071 49.7969V26.2031C5.45071 23.5757 5.45071 22.262 5.82608 21.0802C6.15827 20.0343 6.70206 19.068 7.42366 18.2413C8.23904 17.3071 9.362 16.6253 11.6079 15.2618L30.1028 4.03303Z" fill="url(#paint0_linear_555_1168)"/>
<path d="M30.362 7.46043C32.8061 5.97654 33.9312 5.30089 35.1213 5.03692C36.191 4.79968 37.2996 4.79968 38.3693 5.03692C39.5594 5.30089 40.6845 5.97654 43.1286 7.46042L59.1529 17.1892C61.4268 18.5698 62.4676 19.2081 63.2199 20.0701C63.8964 20.8451 64.4062 21.7511 64.7176 22.7316C65.064 23.822 65.0695 25.0429 65.0695 27.7031V48.2969C65.0695 50.9571 65.064 52.178 64.7176 53.2684C64.4062 54.2489 63.8964 55.1549 63.2199 55.9299C62.4676 56.7919 61.4268 57.4302 59.1529 58.8108L43.1286 68.5396C40.6845 70.0235 39.5594 70.6991 38.3693 70.9631C37.2996 71.2003 36.191 71.2003 35.1213 70.9631C33.9312 70.6991 32.8061 70.0235 30.362 68.5396L14.3377 58.8108C12.0638 57.4302 11.023 56.7919 10.2707 55.9299C9.59418 55.1549 9.08437 54.2489 8.77295 53.2684C8.4266 52.178 8.42104 50.9571 8.42104 48.2969V27.7031C8.42104 25.0429 8.4266 23.822 8.77295 22.7316C9.08437 21.7511 9.59418 20.8451 10.2707 20.0701C11.023 19.2081 12.0638 18.5698 14.3377 17.1892L30.362 7.46043Z" stroke="white" stroke-opacity="0.2"/>
<g filter="url(#filter0_f_555_1168)">
<ellipse cx="32.4666" cy="45.5" rx="13.7888" ry="14.5" fill="#1EFFD6"/>
</g>
<g filter="url(#filter1_f_555_1168)">
<ellipse cx="42.9264" cy="27.5" rx="9.98501" ry="10.5" fill="#ECFF12"/>
</g>
<ellipse cx="36.7463" cy="38" rx="16.1662" ry="17" fill="url(#paint1_radial_555_1168)"/>
<path d="M27.8473 30.0535C25.7215 30.9199 25.5266 34.3856 27.1195 35.2319C28.7124 36.0781 30.6239 33.551 29.9538 31.3907C29.616 30.3106 28.7316 29.7503 27.8473 30.0535Z" fill="#412121"/>
<path d="M35.9655 27.5326C33.6118 28.3239 33.7272 31.3998 35.6277 32.3355C37.6354 33.3232 39.7007 31.4344 38.9784 29.2712C38.7655 28.6423 38.3397 28.118 37.7824 27.7983C37.2251 27.4786 36.5754 27.3861 35.9573 27.5384" fill="#412121"/>
<path d="M35.8703 44.0729H35.8456H35.8703ZM35.6643 44.1364H35.6891H35.6643ZM35.9527 44.044H35.9253H35.9527ZM35.5765 44.1595H35.6094H35.5765ZM36.0324 44.0151H35.9994H36.0324ZM35.4968 44.1797H35.5325H35.4968ZM36.1038 43.9949H36.0763H36.1038ZM35.4172 44.2086H35.4529H35.4172ZM36.1779 43.966H36.1477H36.1779ZM35.3403 44.2259H35.376H35.3403ZM36.2493 43.9371H36.2219H36.2493ZM35.2634 44.2259H35.2991H35.2634ZM36.3207 43.888H36.2933H36.3207ZM35.1837 44.2404H35.2249H35.1837ZM36.3894 43.8563H36.3647H36.3894ZM35.1096 44.2519H35.148H35.1096ZM36.4553 43.8245H36.4361H36.4553ZM35.0354 44.2837H35.0739H35.0354ZM36.5212 43.8129H36.5047H36.5212ZM34.9613 44.2837H34.9997H34.9613ZM36.5871 43.7667H36.5734H36.5871ZM34.8953 44.2837H34.9393H34.8953ZM34.5603 44.301C34.618 44.301 34.6784 44.301 34.7361 44.301C34.6784 44.301 34.618 44.301 34.5603 44.301ZM34.0027 44.2837H34.0385H34.0027ZM33.9368 44.2837H33.9698H33.9368ZM33.7363 44.2837H33.7638H33.7363ZM33.4562 44.1768H33.4699H33.4562ZM36.9579 35.3566C36.8772 35.381 36.7997 35.416 36.7272 35.4606L36.8151 35.4144C37.4578 40.5956 33.1651 41.2656 31.3222 39.683C30.7089 39.0977 30.2388 38.3656 29.9518 37.5487H30.0451C28.3396 37.5891 30.0451 41.5516 31.4925 42.9812C31.5584 43.0476 31.6518 43.1313 31.7232 43.1949C33.5688 41.9068 35.9939 41.1559 38.5481 41.0808C38.8612 39.5617 38.6442 34.9205 36.9744 35.3682" fill="#412121"/>
<path d="M34.8676 41.6847C33.7479 42.0154 32.6835 42.5258 31.7119 43.1981C32.2515 43.7128 32.9108 44.0686 33.6231 44.2294C34.3354 44.3901 35.0755 44.3502 35.7684 44.1136C36.4529 43.9311 37.0752 43.5505 37.5645 43.015C38.0538 42.4795 38.3906 41.8105 38.5368 41.084C37.294 41.114 36.0603 41.3159 34.8676 41.6847Z" fill="#FA4542"/>
<path d="M36.8174 35.4199C36.6891 35.4832 36.5721 35.5692 36.4714 35.6741C36.0045 36.0726 34.7878 37.0401 33.5437 37.4271C32.4358 37.7258 31.2795 37.7682 30.1546 37.5513C30.0882 37.5399 30.0205 37.5399 29.9541 37.5513C31.4784 41.7939 35.5404 40.7773 36.5593 38.3687C37.0399 37.2134 36.8889 36.0091 36.8174 35.4228" fill="#363843"/>
<path d="M24.7334 37.2246C22.6736 38.2181 23.4921 41.5885 25.041 42.1805C26.6505 42.7986 28.1692 40.5632 27.4277 38.6628C26.9581 37.4556 25.7496 36.8116 24.7334 37.2188" fill="#FA4542"/>
<path d="M42.3931 31.7583C39.6769 32.5496 39.2621 35.3511 41.1132 36.4514C43.3406 37.7742 46.4056 35.9373 45.8811 33.598C45.5487 32.1539 44.0217 31.3539 42.4068 31.7525" fill="#FA4542"/>
<defs>
<filter id="filter0_f_555_1168" x="5.67773" y="18" width="53.5781" height="55" filterUnits="userSpaceOnUse" color-interpolation-filters="sRGB">
<feFlood flood-opacity="0" result="BackgroundImageFix"/>
<feBlend mode="normal" in="SourceGraphic" in2="BackgroundImageFix" result="shape"/>
<feGaussianBlur stdDeviation="6.5" result="effect1_foregroundBlur_555_1168"/>
</filter>
<filter id="filter1_f_555_1168" x="19.9414" y="4" width="45.9697" height="47" filterUnits="userSpaceOnUse" color-interpolation-filters="sRGB">
<feFlood flood-opacity="0" result="BackgroundImageFix"/>
<feBlend mode="normal" in="SourceGraphic" in2="BackgroundImageFix" result="shape"/>
<feGaussianBlur stdDeviation="6.5" result="effect1_foregroundBlur_555_1168"/>
</filter>
<linearGradient id="paint0_linear_555_1168" x1="68.5206" y1="-5" x2="12.0723" y2="78.0048" gradientUnits="userSpaceOnUse">
<stop stop-color="#E1FAFF"/>
<stop offset="1" stop-color="#725CF8"/>
</linearGradient>
<radialGradient id="paint1_radial_555_1168" cx="0" cy="0" r="1" gradientUnits="userSpaceOnUse" gradientTransform="translate(37.8529 41.1865) scale(18.6319 19.5806)">
<stop stop-color="#F79F40"/>
<stop offset="0.16" stop-color="#F7A542"/>
<stop offset="0.37" stop-color="#F8B44A"/>
<stop offset="0.6" stop-color="#FACE55"/>
<stop offset="0.77" stop-color="#FBE660"/>
<stop offset="0.91" stop-color="#FBF36F"/>
<stop offset="0.93" stop-color="#FBF672"/>
<stop offset="0.95" stop-color="#FBF676"/>
<stop offset="0.96" stop-color="#FBF783"/>
<stop offset="0.98" stop-color="#FCF897"/>
<stop offset="0.99" stop-color="#FDFAB4"/>
<stop offset="1" stop-color="#FDFBC2"/>
</radialGradient>
</defs>
</svg>
