<svg width="191" height="132" viewBox="0 0 191 132" fill="none" xmlns="http://www.w3.org/2000/svg">
<path d="M97.3646 19.718C101.126 17.5314 103.006 16.4382 105.007 16.0104C106.777 15.6319 108.607 15.6319 110.377 16.0104C112.378 16.4382 114.258 17.5314 118.019 19.718L148.268 37.3039C151.991 39.4688 153.853 40.5513 155.207 42.0613C156.405 43.3974 157.31 44.9697 157.863 46.6768C158.488 48.6062 158.488 50.7599 158.488 55.0673V90.4874C158.488 94.7948 158.488 96.9486 157.863 98.8779C157.31 100.585 156.405 102.157 155.207 103.493C153.853 105.003 151.991 106.086 148.268 108.251L118.019 125.837C114.258 128.023 112.378 129.117 110.377 129.544C108.607 129.923 106.777 129.923 105.007 129.544C103.006 129.117 101.126 128.023 97.3646 125.837L67.1162 108.251C63.3924 106.086 61.5305 105.003 60.1766 103.493C58.9787 102.157 58.0741 100.585 57.5212 98.8779C56.8962 96.9486 56.8962 94.7948 56.8962 90.4874V55.0673C56.8962 50.7599 56.8962 48.6062 57.5212 46.6768C58.0741 44.9697 58.9787 43.3974 60.1766 42.0613C61.5305 40.5513 63.3924 39.4688 67.1162 37.3039L97.3646 19.718Z" fill="url(#paint0_linear_555_2021)"/>
<path d="M97.7683 25.076C101.576 22.862 103.329 21.854 105.175 21.4593C106.834 21.1045 108.55 21.1045 110.21 21.4593C112.056 21.854 113.808 22.862 117.616 25.076L143.854 40.3304C147.625 42.5225 149.351 43.5365 150.6 44.9297C151.723 46.1823 152.571 47.6563 153.089 49.2568C153.666 51.0369 153.675 53.0385 153.675 57.3999V88.1571C153.675 92.5185 153.666 94.5201 153.089 96.3003C152.571 97.9007 151.723 99.3747 150.6 100.627C149.351 102.021 147.625 103.035 143.854 105.227L117.616 120.481C113.808 122.695 112.056 123.703 110.21 124.098C108.55 124.453 106.834 124.453 105.175 124.098C103.329 123.703 101.576 122.695 97.7683 120.481L71.5301 105.227C67.7596 103.035 66.0339 102.021 64.7847 100.627C63.6617 99.3747 62.8136 97.9007 62.2952 96.3003C61.7186 94.5201 61.7093 92.5185 61.7093 88.1571V57.3999C61.7093 53.0385 61.7186 51.0369 62.2952 49.2568C62.8136 47.6563 63.6617 46.1823 64.7847 44.9297C66.0339 43.5365 67.7596 42.5225 71.5301 40.3304L97.7683 25.076Z" stroke="white" stroke-opacity="0.2" stroke-width="1.60526"/>
<g filter="url(#filter0_f_555_2021)">
<ellipse cx="100.746" cy="84.4348" rx="22.3811" ry="22.5374" fill="#1EFFD6"/>
</g>
<g filter="url(#filter1_f_555_2021)">
<ellipse cx="117.726" cy="56.4579" rx="16.207" ry="16.3202" fill="#ECFF12"/>
</g>
<ellipse cx="107.692" cy="72.7776" rx="26.2399" ry="26.4231" fill="url(#paint1_radial_555_2021)"/>
<path d="M93.2484 60.427C89.798 61.7737 89.4815 67.1604 92.0671 68.4757C94.6526 69.791 97.7553 65.8631 96.6676 62.5054C96.1192 60.8265 94.6838 59.9557 93.2484 60.427Z" fill="#412121"/>
<path d="M106.426 56.5076C102.606 57.7375 102.793 62.5183 105.878 63.9727C109.136 65.5079 112.489 62.5721 111.316 59.2099C110.971 58.2324 110.28 57.4174 109.375 56.9205C108.47 56.4237 107.416 56.2798 106.413 56.5165" fill="#412121"/>
<path d="M106.27 82.2164H106.23H106.27ZM105.935 82.3152H105.976H105.935ZM106.403 82.1715H106.359H106.403ZM105.793 82.3511H105.846H105.793ZM106.533 82.1267H106.479H106.533ZM105.663 82.3825H105.721H105.663ZM106.649 82.0952H106.604H106.649ZM105.534 82.4274H105.592H105.534ZM106.769 82.0503H106.72H106.769ZM105.409 82.4543H105.467H105.409ZM106.885 82.0055H106.84H106.885ZM105.285 82.4543H105.343H105.285ZM107.001 81.9291H106.956H107.001ZM105.155 82.4768H105.222H105.155ZM107.112 81.8798H107.072H107.112ZM105.035 82.4947H105.097H105.035ZM107.219 81.8304H107.188H107.219ZM104.915 82.5441H104.977H104.915ZM107.326 81.8124H107.299H107.326ZM104.794 82.5441H104.857H104.794ZM107.433 81.7406H107.411H107.433ZM104.687 82.5441H104.759H104.687ZM104.143 82.5711C104.237 82.5711 104.335 82.5711 104.429 82.5711C104.335 82.5711 104.237 82.5711 104.143 82.5711ZM103.238 82.5441H103.296H103.238ZM103.131 82.5441H103.185H103.131ZM102.806 82.5441H102.851H102.806ZM102.351 82.378H102.374H102.351ZM108.035 68.6687C107.904 68.7067 107.778 68.761 107.661 68.8303L107.803 68.7585C108.846 76.8117 101.879 77.8532 98.8876 75.3932C97.8921 74.4835 97.1291 73.3456 96.6631 72.0759H96.8147C94.0464 72.1387 96.8147 78.2976 99.164 80.5196C99.2709 80.6229 99.4225 80.753 99.5384 80.8518C102.534 78.8497 106.47 77.6826 110.616 77.5659C111.124 75.2047 110.772 67.9909 108.062 68.6867" fill="#412121"/>
<path d="M104.643 78.503C102.825 79.017 101.097 79.8104 99.5205 80.8553C100.396 81.6554 101.466 82.2083 102.623 82.4582C103.779 82.7081 104.98 82.646 106.105 82.2783C107.216 81.9945 108.226 81.403 109.02 80.5707C109.814 79.7384 110.361 78.6986 110.598 77.5693C108.581 77.6159 106.578 77.9299 104.643 78.503Z" fill="#FA4542"/>
<path d="M107.808 68.7666C107.6 68.865 107.41 68.9986 107.246 69.1616C106.489 69.7811 104.514 71.2849 102.494 71.8864C100.696 72.3506 98.8193 72.4165 96.9934 72.0795C96.8856 72.0616 96.7757 72.0616 96.668 72.0795C99.1421 78.6737 105.735 77.0936 107.389 73.3498C108.169 71.5542 107.924 69.6823 107.808 68.7711" fill="white"/>
<path d="M88.1932 71.5728C84.8498 73.117 86.1783 78.3556 88.6925 79.2759C91.3048 80.2365 93.7699 76.7621 92.5663 73.8083C91.804 71.9319 89.8426 70.9309 88.1932 71.5638" fill="#FA4542"/>
<path d="M116.857 63.0749C112.448 64.3049 111.775 68.6592 114.779 70.3695C118.395 72.4254 123.37 69.5704 122.518 65.9344C121.979 63.6899 119.5 62.4465 116.879 63.0659" fill="#FA4542"/>
<g filter="url(#filter2_b_555_2021)">
<ellipse cx="152.796" cy="37.9794" rx="11.2278" ry="11.0604" fill="#CF70D5" fill-opacity="0.1"/>
</g>
<g filter="url(#filter3_b_555_2021)">
<ellipse cx="185.14" cy="100.505" rx="5.24477" ry="5.28139" fill="#CF70D5" fill-opacity="0.27"/>
</g>
<g filter="url(#filter4_b_555_2021)">
<ellipse cx="43.2696" cy="13.6267" rx="13.3741" ry="13.4675" fill="#CF70D5" fill-opacity="0.27"/>
</g>
<g filter="url(#filter5_b_555_2021)">
<ellipse cx="171.241" cy="83.3413" rx="2.88462" ry="2.90476" fill="#CF70D5" fill-opacity="0.61"/>
</g>
<g filter="url(#filter6_b_555_2021)">
<ellipse cx="182.255" cy="12.571" rx="4.98253" ry="5.01731" fill="#CF70D5" fill-opacity="0.61"/>
</g>
<g filter="url(#filter7_b_555_2021)">
<ellipse cx="1.83566" cy="54.2928" rx="1.83566" ry="1.84848" fill="#CF70D5" fill-opacity="0.61"/>
</g>
<path d="M152.885 125.595C161.689 125.595 168.808 118.411 168.808 109.572C168.808 100.732 161.689 93.5479 152.885 93.5479C144.081 93.5479 136.962 100.732 136.962 109.572C136.962 118.411 144.081 125.595 152.885 125.595Z" fill="#C37DFB" stroke="white" stroke-width="3"/>
<g clip-path="url(#clip0_555_2021)">
<path d="M151.551 110.612C151.673 110.908 151.888 111.155 152.163 111.314V112.961H153.605V111.314C153.88 111.155 154.095 110.908 154.216 110.612C154.338 110.317 154.359 109.99 154.277 109.681C154.195 109.372 154.014 109.099 153.762 108.904C153.51 108.71 153.201 108.604 152.884 108.604C152.566 108.604 152.258 108.71 152.006 108.904C151.754 109.099 151.573 109.372 151.491 109.681C151.409 109.99 151.43 110.317 151.551 110.612Z" fill="white"/>
<path fill-rule="evenodd" clip-rule="evenodd" d="M148.557 104.973V105.7H147.115C146.923 105.7 146.74 105.776 146.605 105.912C146.47 106.048 146.394 106.233 146.394 106.426V115.14C146.394 115.333 146.47 115.517 146.605 115.654C146.74 115.79 146.923 115.866 147.115 115.866H158.653C158.844 115.866 159.028 115.79 159.163 115.654C159.298 115.517 159.374 115.333 159.374 115.14V106.426C159.374 106.233 159.298 106.048 159.163 105.912C159.028 105.776 158.844 105.7 158.653 105.7H157.211H155.769H149.999V104.973C149.999 104.203 150.303 103.464 150.844 102.919C151.385 102.375 152.119 102.069 152.884 102.069C153.649 102.069 154.383 102.375 154.924 102.919C155.291 103.289 155.549 103.749 155.677 104.247H157.15C157.002 103.361 156.583 102.536 155.944 101.892C155.132 101.075 154.032 100.616 152.884 100.616C151.736 100.616 150.636 101.075 149.824 101.892C149.013 102.71 148.557 103.818 148.557 104.973ZM147.836 114.414V107.152H157.932V114.414H147.836Z" fill="white"/>
</g>
<defs>
<filter id="filter0_f_555_2021" x="57.4968" y="41.029" width="86.4986" height="86.812" filterUnits="userSpaceOnUse" color-interpolation-filters="sRGB">
<feFlood flood-opacity="0" result="BackgroundImageFix"/>
<feBlend mode="normal" in="SourceGraphic" in2="BackgroundImageFix" result="shape"/>
<feGaussianBlur stdDeviation="10.4342" result="effect1_foregroundBlur_555_2021"/>
</filter>
<filter id="filter1_f_555_2021" x="80.6501" y="19.2693" width="74.1509" height="74.3775" filterUnits="userSpaceOnUse" color-interpolation-filters="sRGB">
<feFlood flood-opacity="0" result="BackgroundImageFix"/>
<feBlend mode="normal" in="SourceGraphic" in2="BackgroundImageFix" result="shape"/>
<feGaussianBlur stdDeviation="10.4342" result="effect1_foregroundBlur_555_2021"/>
</filter>
<filter id="filter2_b_555_2021" x="134.461" y="19.8113" width="36.6714" height="36.3365" filterUnits="userSpaceOnUse" color-interpolation-filters="sRGB">
<feFlood flood-opacity="0" result="BackgroundImageFix"/>
<feGaussianBlur in="BackgroundImage" stdDeviation="3.55385"/>
<feComposite in2="SourceAlpha" operator="in" result="effect1_backgroundBlur_555_2021"/>
<feBlend mode="normal" in="SourceGraphic" in2="effect1_backgroundBlur_555_2021" result="shape"/>
</filter>
<filter id="filter3_b_555_2021" x="172.788" y="88.1159" width="24.7046" height="24.7779" filterUnits="userSpaceOnUse" color-interpolation-filters="sRGB">
<feFlood flood-opacity="0" result="BackgroundImageFix"/>
<feGaussianBlur in="BackgroundImage" stdDeviation="3.55385"/>
<feComposite in2="SourceAlpha" operator="in" result="effect1_backgroundBlur_555_2021"/>
<feBlend mode="normal" in="SourceGraphic" in2="effect1_backgroundBlur_555_2021" result="shape"/>
</filter>
<filter id="filter4_b_555_2021" x="22.7878" y="-6.94851" width="40.9634" height="41.1509" filterUnits="userSpaceOnUse" color-interpolation-filters="sRGB">
<feFlood flood-opacity="0" result="BackgroundImageFix"/>
<feGaussianBlur in="BackgroundImage" stdDeviation="3.55385"/>
<feComposite in2="SourceAlpha" operator="in" result="effect1_backgroundBlur_555_2021"/>
<feBlend mode="normal" in="SourceGraphic" in2="effect1_backgroundBlur_555_2021" result="shape"/>
</filter>
<filter id="filter5_b_555_2021" x="161.249" y="73.3288" width="19.9849" height="20.025" filterUnits="userSpaceOnUse" color-interpolation-filters="sRGB">
<feFlood flood-opacity="0" result="BackgroundImageFix"/>
<feGaussianBlur in="BackgroundImage" stdDeviation="3.55385"/>
<feComposite in2="SourceAlpha" operator="in" result="effect1_backgroundBlur_555_2021"/>
<feBlend mode="normal" in="SourceGraphic" in2="effect1_backgroundBlur_555_2021" result="shape"/>
</filter>
<filter id="filter6_b_555_2021" x="170.165" y="0.446016" width="24.1802" height="24.2496" filterUnits="userSpaceOnUse" color-interpolation-filters="sRGB">
<feFlood flood-opacity="0" result="BackgroundImageFix"/>
<feGaussianBlur in="BackgroundImage" stdDeviation="3.55385"/>
<feComposite in2="SourceAlpha" operator="in" result="effect1_backgroundBlur_555_2021"/>
<feBlend mode="normal" in="SourceGraphic" in2="effect1_backgroundBlur_555_2021" result="shape"/>
</filter>
<filter id="filter7_b_555_2021" x="-7.10769" y="45.3366" width="17.8863" height="17.9127" filterUnits="userSpaceOnUse" color-interpolation-filters="sRGB">
<feFlood flood-opacity="0" result="BackgroundImageFix"/>
<feGaussianBlur in="BackgroundImage" stdDeviation="3.55385"/>
<feComposite in2="SourceAlpha" operator="in" result="effect1_backgroundBlur_555_2021"/>
<feBlend mode="normal" in="SourceGraphic" in2="effect1_backgroundBlur_555_2021" result="shape"/>
</filter>
<linearGradient id="paint0_linear_555_2021" x1="159.267" y1="5.94235" x2="72.9847" y2="138.435" gradientUnits="userSpaceOnUse">
<stop stop-color="#E1FAFF"/>
<stop offset="1" stop-color="#725CF8"/>
</linearGradient>
<radialGradient id="paint1_radial_555_2021" cx="0" cy="0" r="1" gradientUnits="userSpaceOnUse" gradientTransform="translate(109.488 77.7305) scale(30.2421 30.4342)">
<stop stop-color="#F79F40"/>
<stop offset="0.16" stop-color="#F7A542"/>
<stop offset="0.37" stop-color="#F8B44A"/>
<stop offset="0.6" stop-color="#FACE55"/>
<stop offset="0.77" stop-color="#FBE660"/>
<stop offset="0.91" stop-color="#FBF36F"/>
<stop offset="0.93" stop-color="#FBF672"/>
<stop offset="0.95" stop-color="#FBF676"/>
<stop offset="0.96" stop-color="#FBF783"/>
<stop offset="0.98" stop-color="#FCF897"/>
<stop offset="0.99" stop-color="#FDFAB4"/>
<stop offset="1" stop-color="#FDFBC2"/>
</radialGradient>
<clipPath id="clip0_555_2021">
<rect width="17.3077" height="17.4286" fill="white" transform="translate(144.23 99.8896)"/>
</clipPath>
</defs>
</svg>
