<svg width="239" height="177" viewBox="0 0 239 177" fill="none" xmlns="http://www.w3.org/2000/svg">
<path d="M238.888 88.5C238.888 137.377 180.094 154.72 119.444 177C65.6014 144.818 0 137.377 0 88.5C0 39.6228 53.4769 0 119.444 0C185.411 0 238.888 39.6228 238.888 88.5Z" fill="#7EE1F6"/>
<path d="M238.888 88.5C238.888 137.377 180.094 154.72 119.444 177C65.6014 144.818 0 137.377 0 88.5C0 39.6228 53.4769 0 119.444 0C185.411 0 238.888 39.6228 238.888 88.5Z" fill="#7EE1F6"/>
<circle cx="74.2657" cy="64.3633" r="18.5664" fill="white"/>
<circle cx="163.385" cy="68.0762" r="18.5664" fill="white"/>
<rect x="206.717" y="38.1399" width="44.2471" height="17.2877" rx="8.64387" transform="rotate(-151.653 206.717 38.1399)" fill="#7EE1F6" stroke="white"/>
<rect x="71.6505" y="16.5327" width="44.2471" height="17.2877" rx="8.64387" transform="rotate(156.682 71.6505 16.5327)" fill="#7EE1F6" stroke="white"/>
<path d="M114.06 83.0492C114.758 82.1902 115.805 81.6914 116.911 81.6914V81.6914C120.395 81.6914 121.921 86.0877 119.187 88.2463L117.342 89.703C117.14 89.8627 116.954 90.0416 116.786 90.2373L110.394 97.6846C108.723 99.6314 105.674 99.5121 104.161 97.4406V97.4406C102.747 95.5054 103.351 92.7686 105.449 91.6093L107.783 90.3192C108.232 90.0708 108.63 89.7382 108.953 89.3396L114.06 83.0492Z" fill="white"/>
<path d="M124.218 83.0881C123.536 82.2072 122.486 81.6914 121.372 81.6914V81.6914C118.003 81.6914 116.483 85.9072 119.076 88.0573L121.053 89.6956C121.251 89.8602 121.433 90.0437 121.597 90.2435L127.53 97.5029C129.166 99.5044 132.263 99.3847 133.739 97.2628V97.2628C135.039 95.3949 134.466 92.815 132.498 91.6727L130.195 90.3363C129.748 90.0767 129.355 89.7327 129.039 89.3235L124.218 83.0881Z" fill="white"/>
</svg>
