<svg width="20" height="20" viewBox="0 0 20 20" fill="none" xmlns="http://www.w3.org/2000/svg">
<path d="M9.5 0.848283C5.51667 1.10662 2.5 4.59828 2.5 8.58995V14.1649C2.5 15.5483 3.61667 16.6649 5 16.6649H5.83333C6.75 16.6649 7.5 15.9149 7.5 14.9983V11.6649C7.5 10.7483 6.75 9.99828 5.83333 9.99828H4.16667V8.57328C4.16667 5.37328 6.63333 2.58995 9.825 2.49828C13.1333 2.40662 15.8333 5.04828 15.8333 8.33162V9.99828H14.1667C13.25 9.99828 12.5 10.7483 12.5 11.6649V14.9983C12.5 15.9149 13.25 16.6649 14.1667 16.6649H15.8333V17.4983H10.8333C10.375 17.4983 10 17.8733 10 18.3316C10 18.7899 10.375 19.1649 10.8333 19.1649H15C16.3833 19.1649 17.5 18.0483 17.5 16.6649V8.33162C17.5 4.02328 13.8667 0.56495 9.5 0.848283Z" fill="#323232"/>
</svg>
