<svg width="18" height="18" viewBox="0 0 18 18" fill="none" xmlns="http://www.w3.org/2000/svg">
<path d="M15.1901 9.81797C15.2234 9.5513 15.2484 9.28464 15.2484 9.0013C15.2484 8.71797 15.2234 8.4513 15.1901 8.18464L16.9484 6.80964C17.1067 6.68464 17.1484 6.45964 17.0484 6.2763L15.3817 3.39297C15.3067 3.25964 15.1651 3.18464 15.0151 3.18464C14.9651 3.18464 14.9151 3.19297 14.8734 3.20964L12.7984 4.04297C12.3651 3.70964 11.8984 3.43464 11.3901 3.2263L11.0734 1.01797C11.0484 0.817969 10.8734 0.667969 10.6651 0.667969H7.33173C7.1234 0.667969 6.9484 0.817969 6.9234 1.01797L6.60673 3.2263C6.0984 3.43464 5.63173 3.71797 5.1984 4.04297L3.1234 3.20964C3.0734 3.19297 3.0234 3.18464 2.9734 3.18464C2.83173 3.18464 2.69007 3.25964 2.61507 3.39297L0.948401 6.2763C0.840068 6.45964 0.890068 6.68464 1.0484 6.80964L2.80673 8.18464C2.7734 8.4513 2.7484 8.7263 2.7484 9.0013C2.7484 9.2763 2.7734 9.5513 2.80673 9.81797L1.0484 11.193C0.890068 11.318 0.848401 11.543 0.948401 11.7263L2.61507 14.6096C2.69007 14.743 2.83173 14.818 2.98173 14.818C3.03173 14.818 3.08173 14.8096 3.1234 14.793L5.1984 13.9596C5.63173 14.293 6.0984 14.568 6.60673 14.7763L6.9234 16.9846C6.9484 17.1846 7.1234 17.3346 7.33173 17.3346H10.6651C10.8734 17.3346 11.0484 17.1846 11.0734 16.9846L11.3901 14.7763C11.8984 14.568 12.3651 14.2846 12.7984 13.9596L14.8734 14.793C14.9234 14.8096 14.9734 14.818 15.0234 14.818C15.1651 14.818 15.3067 14.743 15.3817 14.6096L17.0484 11.7263C17.1484 11.543 17.1067 11.318 16.9484 11.193L15.1901 9.81797ZM13.5401 8.39297C13.5734 8.6513 13.5817 8.8263 13.5817 9.0013C13.5817 9.1763 13.5651 9.35964 13.5401 9.60964L13.4234 10.5513L14.1651 11.1346L15.0651 11.8346L14.4817 12.843L13.4234 12.418L12.5567 12.068L11.8067 12.6346C11.4484 12.9013 11.1067 13.1013 10.7651 13.243L9.88173 13.6013L9.7484 14.543L9.58173 15.668H8.41507L8.25673 14.543L8.1234 13.6013L7.24007 13.243C6.88173 13.093 6.5484 12.9013 6.21507 12.6513L5.45673 12.068L4.5734 12.4263L3.51507 12.8513L2.93173 11.843L3.83173 11.143L4.5734 10.5596L4.45673 9.61797C4.43173 9.35964 4.41507 9.16797 4.41507 9.0013C4.41507 8.83464 4.43173 8.64297 4.45673 8.39297L4.5734 7.4513L3.83173 6.86797L2.93173 6.16797L3.51507 5.15964L4.5734 5.58464L5.44007 5.93464L6.19007 5.36797C6.5484 5.1013 6.89007 4.9013 7.23173 4.75964L8.11507 4.4013L8.2484 3.45964L8.41507 2.33464H9.5734L9.73174 3.45964L9.86507 4.4013L10.7484 4.75964C11.1067 4.90964 11.4401 5.1013 11.7734 5.3513L12.5317 5.93464L13.4151 5.5763L14.4734 5.1513L15.0567 6.15964L14.1651 6.86797L13.4234 7.4513L13.5401 8.39297ZM8.9984 5.66797C7.15673 5.66797 5.66507 7.15964 5.66507 9.0013C5.66507 10.843 7.15673 12.3346 8.9984 12.3346C10.8401 12.3346 12.3317 10.843 12.3317 9.0013C12.3317 7.15964 10.8401 5.66797 8.9984 5.66797ZM8.9984 10.668C8.08173 10.668 7.33173 9.91797 7.33173 9.0013C7.33173 8.08464 8.08173 7.33464 8.9984 7.33464C9.91507 7.33464 10.6651 8.08464 10.6651 9.0013C10.6651 9.91797 9.91507 10.668 8.9984 10.668Z" fill="#323232"/>
</svg>
