<svg width="20" height="20" viewBox="0 0 20 20" fill="none" xmlns="http://www.w3.org/2000/svg">
<path d="M13.8906 10.9414C15.0323 11.7164 15.8323 12.7664 15.8323 14.1664V16.6664H19.1656V14.1664C19.1656 12.3497 16.1906 11.2747 13.8906 10.9414Z" fill="#323232"/>
<path d="M12.499 9.9987C14.3406 9.9987 15.8323 8.50703 15.8323 6.66536C15.8323 4.8237 14.3406 3.33203 12.499 3.33203C12.1073 3.33203 11.7406 3.41536 11.3906 3.53203C12.0823 4.39036 12.499 5.48203 12.499 6.66536C12.499 7.8487 12.0823 8.94036 11.3906 9.7987C11.7406 9.91536 12.1073 9.9987 12.499 9.9987Z" fill="#323232"/>
<path d="M7.4974 9.9987C9.33906 9.9987 10.8307 8.50703 10.8307 6.66536C10.8307 4.8237 9.33906 3.33203 7.4974 3.33203C5.65573 3.33203 4.16406 4.8237 4.16406 6.66536C4.16406 8.50703 5.65573 9.9987 7.4974 9.9987ZM7.4974 4.9987C8.41406 4.9987 9.16406 5.7487 9.16406 6.66536C9.16406 7.58203 8.41406 8.33203 7.4974 8.33203C6.58073 8.33203 5.83073 7.58203 5.83073 6.66536C5.83073 5.7487 6.58073 4.9987 7.4974 4.9987Z" fill="#323232"/>
<path d="M7.4987 10.832C5.2737 10.832 0.832031 11.9487 0.832031 14.1654V16.6654H14.1654V14.1654C14.1654 11.9487 9.7237 10.832 7.4987 10.832ZM12.4987 14.9987H2.4987V14.1737C2.66536 13.5737 5.2487 12.4987 7.4987 12.4987C9.7487 12.4987 12.332 13.5737 12.4987 14.1654V14.9987Z" fill="#323232"/>
</svg>
