<svg width="24" height="24" viewBox="0 0 24 24" fill="none" xmlns="http://www.w3.org/2000/svg">
<circle cx="12" cy="12" r="12" fill="black" fill-opacity="0.1"/>
<path fill-rule="evenodd" clip-rule="evenodd" d="M7.40426 7.40426C7.59952 7.209 7.9161 7.209 8.11137 7.40426L16.5966 15.8895C16.7919 16.0848 16.7919 16.4014 16.5966 16.5966C16.4014 16.7919 16.0848 16.7919 15.8895 16.5966L7.40426 8.11137C7.209 7.9161 7.209 7.59952 7.40426 7.40426Z" fill="white"/>
<path fill-rule="evenodd" clip-rule="evenodd" d="M16.5966 7.40426C16.7919 7.59952 16.7919 7.9161 16.5966 8.11137L8.11137 16.5966C7.9161 16.7919 7.59952 16.7919 7.40426 16.5966C7.209 16.4014 7.209 16.0848 7.40426 15.8895L15.8895 7.40426C16.0848 7.209 16.4014 7.209 16.5966 7.40426Z" fill="white"/>
</svg>
